<?xml version="1.0" encoding="UTF-8" standalone="no"?>
<!-- Created with Inkscape (http://www.inkscape.org/) -->

<svg
   xmlns:dc="http://purl.org/dc/elements/1.1/"
   xmlns:cc="http://creativecommons.org/ns#"
   xmlns:rdf="http://www.w3.org/1999/02/22-rdf-syntax-ns#"
   xmlns:svg="http://www.w3.org/2000/svg"
   xmlns="http://www.w3.org/2000/svg"
   xmlns:sodipodi="http://sodipodi.sourceforge.net/DTD/sodipodi-0.dtd"
   xmlns:inkscape="http://www.inkscape.org/namespaces/inkscape"
   width="24mm"
   height="24mm"
   viewBox="0 0 24 24"
   version="1.1"
   id="svg5115"
   inkscape:version="0.92.1 r15371"
   sodipodi:docname="yam24.svg">
  <defs
     id="defs5109" />
  <sodipodi:namedview
     id="base"
     pagecolor="#ffffff"
     bordercolor="#666666"
     borderopacity="1.0"
     inkscape:pageopacity="0.0"
     inkscape:pageshadow="2"
     inkscape:zoom="0.45254834"
     inkscape:cx="768.86802"
     inkscape:cy="29.963055"
     inkscape:document-units="mm"
     inkscape:current-layer="g5819"
     showgrid="false"
     inkscape:window-width="1366"
     inkscape:window-height="705"
     inkscape:window-x="-8"
     inkscape:window-y="-8"
     inkscape:window-maximized="1" />
  <metadata
     id="metadata5112">
    <rdf:RDF>
      <cc:Work
         rdf:about="">
        <dc:format>image/svg+xml</dc:format>
        <dc:type
           rdf:resource="http://purl.org/dc/dcmitype/StillImage" />
        <dc:title></dc:title>
      </cc:Work>
    </rdf:RDF>
  </metadata>
  <g
     inkscape:label="Layer 1"
     inkscape:groupmode="layer"
     id="layer1"
     transform="translate(0,-273)">
    <g
       id="g5819"
       inkscape:export-xdpi="96"
       inkscape:export-ydpi="96"
       transform="matrix(2.6572905,0,0,2.6584332,-21.063532,-470.95219)">
      <g
         id="g5878"
         transform="matrix(0.37440871,0,0,0.37191175,-0.03151548,186.75295)"
         inkscape:export-xdpi="96"
         inkscape:export-ydpi="96">
        <rect
           style="fill:#808080;fill-opacity:1;stroke-width:0.26180583"
           id="rect5107"
           width="24"
           height="24"
           x="0.072342031"
           y="273.06128"
           inkscape:export-xdpi="96"
           inkscape:export-ydpi="96" />
        <g
           transform="matrix(0.03755404,0,0,0.07756764,-0.81124651,274.97437)"
           id="g1426">
          <path
             style="fill:#d4891c;fill-opacity:1;stroke-width:2.25864577"
             d="m 653.17879,284.66332 c -4.10091,-2.35287 -11.37314,-7.30957 -16.16047,-11.0149 -11.28496,-8.73443 -24.27348,-13.08837 -39.08919,-13.10316 -6.54107,-0.006 -18.6075,-0.92358 -26.81434,-2.03786 -17.62313,-2.39282 -39.40098,0.23255 -54.44622,6.56361 -7.91891,3.33231 -12.93377,3.9648 -24.54845,3.0961 -54.3822,-2.67886 -48.10136,-2.81258 -54.3822,-2.67886 -71.78065,-15.14126 -105.29081,-22.44133 -121.24542,-46.15886 4.8924,-62.14047 10.23714,-1.4349 1.35577,7.73496 -2.19869,1.81357 -22.88498,-8.87089 -36.53401,-18.86983 -6.76635,-4.95684 -19.31008,-12.82344 -27.87497,-17.48136 -8.56489,-4.65788 -18.12103,-11.1032 -21.23586,-14.3229 -3.11482,-3.21967 -11.77363,-8.7376 -19.24179,-12.262 -12.8849,-6.08074 -26.82711,-17.90876 -33.38107,-28.3192 2.18948,-11.11425 9.21358,13.93414 -31.70037,-21.40836 -9.80608,-5.92748 -17.58601,-7.3248 -22.53382,-27.162823 -1.65739,2.442865 -6.6679,-0.615364 -23.8037,-14.528778 C 81.121873,56.128386 73.176765,46.968668 68.757756,34.912082 62.976558,19.139004 56.806985,8.2449421 53.655483,8.2449421 c -1.953437,0 -3.551706,1.8461669 -3.551706,4.1026479 0,2.256446 -0.854278,4.102612 -1.898391,4.102612 -4.340236,0 -27.944732,-14.7010892 -27.944732,-17.40421466 0,-4.49576784 18.930569,-12.62338034 41.034296,-17.61762934 19.551068,-4.417474 20.519542,-4.440879 55.95585,-1.352424 19.83324,1.728565 40.03923,2.693613 44.9022,2.144551 12.6479,-1.428025 36.19092,2.623253 46.76569,8.0474525 l 9.05265,4.6434167 c 14.61734,-0.402042 34.04635,-10.0839832 81.45009,20.1125458 l 29.10377,11.682922 c 12.85559,80.224698 -67.16901,7.720487 0,0 7.87317,0 32.11492,8.168249 39.23573,13.220473 l 6.54686,4.644996 30.82152,8.157362 c -67.3997,0.157162 -25.81325,-0.02546 -21.37716,-0.445269 21.52094,-1.819566 31.01092,0.870133 48.83817,13.841868 7.79804,5.674195 23.60229,14.126326 35.12053,18.782558 11.51824,4.656232 47.29334,26.66686 47.17975,27.79506 -89.78088,6.80559 -58.11437,-23.319971 0,0 11.76226,4.99841 32.377,19.97775 40.59572,29.49813 l 5.07314,5.87663 c 20.32545,21.25895 -0.58661,-3.67283 20.32545,21.25895 2.23699,2.81606 6.89211,14.10769 10.34473,25.0925 3.45263,10.98485 7.93797,22.07309 9.96741,24.64062 2.89146,3.65809 3.14101,6.30794 1.15322,12.24617 -2.84694,8.50468 -0.11093,12.95734 5.57159,9.06731 4.60163,-3.15005 22.47897,10.27289 27.87852,20.93225 2.12423,4.19347 5.37387,8.10298 7.22139,8.68776 3.73703,1.18284 19.86987,17.07586 18.48938,18.21454 -0.48174,0.3974 -4.23126,-1.20254 -8.33218,-3.55541 z"
             id="path1326"
             inkscape:connector-curvature="0"
             sodipodi:nodetypes="cccccccccccccccccssssssssccccccccccscccccscccccccc" />
          <path
             style="fill:#b0793f;fill-opacity:1;stroke-width:2.85714293"
             d="m 594.46763,781.54851 c -0.16966,-12.53259 29.26866,-88.22184 34.3127,-88.22184 2.5382,0 5.53185,10.39746 5.58553,19.39954 0.0498,8.34478 -8.24837,24.55708 -20.04982,39.17189 -5.07572,6.28571 -11.60392,16.57143 -14.50712,22.85714 -2.9032,6.28571 -5.30678,9.34269 -5.34129,6.79327 z"
             id="path1330"
             inkscape:connector-curvature="0"
             transform="matrix(0.4352122,0,0,0.3589808,53.494543,-75.853917)" />
          <path
             style="fill:#000000;fill-opacity:1;stroke-width:2.85714293"
             d="m 598.64541,767.61238 c 1.1513,-3.92857 7.1027,-20 13.22534,-35.71428 15.16414,-38.92007 18.36884,-43.33208 19.71539,-27.14286 1.2596,15.14384 -0.52737,19.97885 -15.94814,43.15084 -18.47106,27.75549 -19.80471,29.30213 -16.99259,19.7063 z"
             id="path1332"
             inkscape:connector-curvature="0"
             transform="matrix(0.4352122,0,0,0.3589808,53.494543,-75.853917)" />
          <path
             style="fill:#000000;fill-opacity:1;stroke-width:1.12932289"
             d="m 341.8346,84.270208 c -1.16503,-1.780132 -5.47558,-6.446351 -9.57901,-10.369372 -17.2331,-16.475445 -20.55508,-19.98127 -23.56676,-24.870969 -4.42986,-7.19222 -4.3371,-13.779306 0.25182,-17.882718 2.88059,-2.575824 4.69337,-3.166692 11.50204,-3.749034 l 8.08251,-0.691293 -5.40203,3.989267 c -5.40324,3.990165 -8.84273,9.728556 -8.87908,14.813724 -0.0364,5.09864 5.92776,12.683384 15.82252,20.121685 8.46092,6.360418 15.85549,14.418622 18.42669,20.080413 1.54714,3.406814 -4.31641,2.137275 -6.6587,-1.441703 z"
             id="path1334"
             inkscape:connector-curvature="0" />
          <path
             style="fill:#000000;fill-opacity:1;stroke-width:0.39927593"
             d="m 361.08693,59.342816 c 1.22716,-0.642558 25.39198,0.0548 26.37643,0.761186 -5.88831,2.878793 -30.75063,2.544255 -26.37643,-0.761186 z"
             id="path1336"
             inkscape:connector-curvature="0"
             sodipodi:nodetypes="ccc" />
          <path
             style="fill:#000000;fill-opacity:1;stroke-width:2.85714293"
             d="m 291.86335,604.72411 c -1.76339,-1.09313 -8.3688,-9.6702 -14.67868,-19.06017 l -11.47251,-17.07265 8.19462,-3.44558 c 5.79965,-2.43857 11.11658,-9.13937 18.19234,-22.92735 5.49874,-10.71497 10.06094,-17.97753 10.13823,-16.13904 0.0773,1.8385 -3.1284,16.90748 -7.12376,33.48663 -6.89054,28.593 -7.01763,30.52035 -2.47012,37.46073 5.01822,7.65878 4.67179,11.07706 -0.78012,7.69743 z"
             id="path1342"
             inkscape:connector-curvature="0"
             transform="matrix(0.4352122,0,0,0.3589808,53.494543,-75.853917)" />
          <path
             style="fill:#000000;fill-opacity:1;stroke-width:1.11002064"
             d="m 580.44092,193.89136 c -1.08016,-1.60562 -3.34983,-6.98029 -5.0437,-11.9437 -7.11374,-20.84475 -8.78172,-24.96019 -11.83295,-29.19573 -4.48803,-6.23002 -10.45343,-8.08585 -16.19493,-5.03825 -3.60409,1.91306 -4.94577,3.42065 -8.51289,9.56561 l -4.23451,7.29463 6.00229,-3.8356 c 6.00367,-3.83646 12.70175,-5.3357 17.29121,-3.8703 4.60162,1.46929 8.75683,9.23849 11.02342,20.61103 1.93812,9.72456 5.87976,18.96033 9.82223,23.01483 2.37228,2.43968 3.85151,-3.3744 1.67983,-6.60252 z"
             id="path1334-6"
             inkscape:connector-curvature="0" />
          <path
             style="fill:#000000;fill-opacity:1;stroke-width:1.12932289"
             d="m 454.01347,222.71155 c 1.75206,-0.26684 9.16314,-0.96058 16.46908,-1.54165 18.09482,-1.43917 20.43755,-1.12624 14.4125,1.92508 -5.63599,2.85431 -7.86489,3.06413 -19.89223,1.8726 -14.40638,-1.42722 -15.26887,-1.60428 -10.98935,-2.25603 z"
             id="path1332-0"
             inkscape:connector-curvature="0" />
          <path
             style="fill:#000000;fill-opacity:1;stroke-width:1.12932289"
             d="m 386.75592,260.35995 c -0.76744,-0.39241 -3.6422,-3.47141 -6.38834,-6.84223 l -4.99297,-6.12876 3.5664,-1.23689 c 2.52407,-0.8754 4.83807,-3.28086 7.91752,-8.23048 2.39312,-3.84647 4.37865,-6.45359 4.41229,-5.79361 0.0336,0.65999 -1.36152,6.06946 -3.10035,12.02106 -2.99885,10.26434 -3.05416,10.95622 -1.07503,13.44768 2.18399,2.74936 2.03322,3.97645 -0.33952,2.76323 z"
             id="path1342-5"
             inkscape:connector-curvature="0" />
          <path
             style="fill:#000000;fill-opacity:1;stroke-width:1.12932289"
             d="m 644.47459,278.20168 c -7.265,-6.38577 -20.56426,-13.60671 -28.94279,-15.71473 -4.68841,-1.17958 -9.94725,-2.14469 -11.68636,-2.14469 -2.25279,0 -5.04885,-1.68566 -9.72425,-5.8625 -3.60926,-3.22437 -6.24499,-6.2859 -5.85726,-6.80339 0.3886,-0.51867 4.54357,-0.67545 9.25892,-0.34938 7.33067,0.50693 9.08362,1.02841 12.25771,3.64656 2.0371,1.68027 5.80269,3.61558 8.36796,4.30068 2.56531,0.68511 7.29807,3.25955 10.51734,5.72099 3.21926,2.46143 6.41489,4.47534 7.10148,4.47534 1.94288,0 5.65833,3.70035 9.38261,9.3445 3.90999,5.92564 3.65696,7.19464 -0.67536,3.38662 z"
             id="path1403"
             inkscape:connector-curvature="0" />
        </g>
      </g>
    </g>
  </g>
</svg>
